# xmcd CD database file
#
# Track frame offsets:
#	150
#	13650
#	31275
#
# Disc length: 559 seconds
#
# Revision: 1
# Processed by: cddbd v1.4PL0 Copyright (c) Steve Scherf et al.
# Submitted via: CD2WAV32(EN) R3.17
#
DISCID=19022d03
DTITLE=ITOU Masumi - Sora no Hirune
DYEAR=1900
DGENRE=
TTITLE0=Sora no Hirune
TTITLE1=Konomichi
TTITLE2=Sora no Hirune CM Ver
EXTD=
EXTT0=
EXTT1=
EXTT2=
PLAYORDER=
